<svg version="1.1" viewBox="0.0 0.0 960.0 540.0" fill="none" stroke="none" stroke-linecap="square" stroke-miterlimit="10" xmlns:xlink="http://www.w3.org/1999/xlink" xmlns="http://www.w3.org/2000/svg"><clipPath id="g109052645de_0_0.0"><path d="m0 0l960.0 0l0 540.0l-960.0 0l0 -540.0z" clip-rule="nonzero"/></clipPath><g clip-path="url(#g109052645de_0_0.0)"><path fill="#ffffff" d="m0 0l960.0 0l0 540.0l-960.0 0z" fill-rule="evenodd"/><path fill="#000000" fill-opacity="0.0" d="m147.40683 133.49344l261.73227 0l0 88.8819l-261.73227 0z" fill-rule="evenodd"/><path fill="#38761d" d="m160.60995 197.53343l0 -41.03125l17.4375 0q6.578125 0 9.546875 1.109375q2.984375 1.09375 4.78125 3.921875q1.796875 2.828125 1.796875 6.46875q0 4.625 -2.71875 7.640625q-2.71875 3.0 -8.125 3.78125q2.6875 1.5625 4.4375 3.4375q1.75 1.875 4.71875 6.671875l5.015625 8.0l-9.90625 0l-6.0 -8.921875q-3.1875 -4.796875 -4.359375 -6.03125q-1.171875 -1.25 -2.5 -1.703125q-1.3125 -0.46875 -4.15625 -0.46875l-1.6875 0l0 17.125l-8.28125 0zm8.28125 -23.6875l6.125 0q5.96875 0 7.453125 -0.5q1.484375 -0.5 2.3125 -1.734375q0.84375 -1.234375 0.84375 -3.078125q0 -2.078125 -1.109375 -3.34375q-1.09375 -1.28125 -3.109375 -1.609375q-1.015625 -0.140625 -6.046875 -0.140625l-6.46875 0l0 10.40625zm33.088043 23.6875l0 -41.03125l30.421875 0l0 6.9375l-22.140625 0l0 9.09375l20.609375 0l0 6.921875l-20.609375 0l0 11.15625l22.921875 0l0 6.921875l-31.203125 0zm38.20616 -41.03125l15.140625 0q5.1249847 0 7.8124847 0.78125q3.609375 1.0625 6.1875 3.78125q2.578125 2.703125 3.921875 6.640625q1.34375 3.9375 1.34375 9.703125q0 5.0625 -1.265625 8.734375q-1.53125 4.46875 -4.390625 7.25q-2.15625 2.09375 -5.828125 3.265625q-2.734375 0.875 -7.3281097 0.875l-15.59375 0l0 -41.03125zm8.28125 6.9375l0 27.171875l6.1875 0q3.4687347 0 5.0156097 -0.390625q2.015625 -0.5 3.34375 -1.703125q1.328125 -1.203125 2.171875 -3.953125q0.84375 -2.765625 0.84375 -7.515625q0 -4.765625 -0.84375 -7.3125q-0.84375 -2.546875 -2.359375 -3.96875q-1.5 -1.4375 -3.828125 -1.9375q-1.734375 -0.390625 -6.7968597 -0.390625l-3.734375 0z" fill-rule="nonzero"/><path fill="#000000" fill-opacity="0.0" d="m301.75854 205.68242l261.73224 0l0 88.88188l-261.73224 0z" fill-rule="evenodd"/><path fill="#4285f4" d="m334.02417 254.62866l0 -6.90625l17.859375 0l0 16.34375q-2.609375 2.515625 -7.546875 4.4375q-4.9375 1.921875 -10.015625 1.921875q-6.4375 0 -11.21875 -2.703125q-4.78125 -2.703125 -7.1875 -7.71875q-2.40625 -5.03125 -2.40625 -10.9375q0 -6.40625 2.6875 -11.390625q2.6875 -4.984375 7.859375 -7.640625q3.953125 -2.046875 9.828125 -2.046875q7.640625 0 11.9375 3.203125q4.296875 3.203125 5.53125 8.859375l-8.234375 1.546875q-0.875 -3.03125 -3.265625 -4.78125q-2.390625 -1.75 -5.96875 -1.75q-5.4375 0 -8.640625 3.453125q-3.203125 3.4375 -3.203125 10.203125q0 7.3125 3.25 10.96875q3.25 3.65625 8.5 3.65625q2.609375 0 5.21875 -1.015625q2.625 -1.03125 4.5 -2.484375l0 -5.21875l-9.484375 0zm25.529144 15.09375l0 -41.03125l17.4375 0q6.578125 0 9.546875 1.109375q2.984375 1.09375 4.78125 3.921875q1.796875 2.828125 1.796875 6.46875q0 4.625 -2.71875 7.640625q-2.71875 3.0 -8.125 3.78125q2.6875 1.5625 4.4375 3.4375q1.75 1.875 4.71875 6.671875l5.015625 8.0l-9.90625 0l-6.0 -8.921875q-3.1875 -4.796875 -4.359375 -6.03125q-1.171875 -1.25 -2.5 -1.703125q-1.3125 -0.46875 -4.15625 -0.46875l-1.6875 0l0 17.125l-8.28125 0zm8.28125 -23.6875l6.125 0q5.96875 0 7.453125 -0.5q1.484375 -0.5 2.3125 -1.734375q0.84375 -1.234375 0.84375 -3.078125q0 -2.078125 -1.109375 -3.34375q-1.09375 -1.28125 -3.109375 -1.609375q-1.015625 -0.140625 -6.046875 -0.140625l-6.46875 0l0 10.40625zm33.088043 23.6875l0 -41.03125l30.421875 0l0 6.9375l-22.140625 0l0 9.09375l20.609375 0l0 6.921875l-20.609375 0l0 11.15625l22.921875 0l0 6.921875l-31.203125 0zm38.237427 0l0 -41.03125l30.421875 0l0 6.9375l-22.140625 0l0 9.09375l20.609375 0l0 6.921875l-20.609375 0l0 11.15625l22.921875 0l0 6.921875l-31.203125 0zm38.31552 0l0 -41.03125l8.0625 0l16.796875 27.40625l0 -27.40625l7.703125 0l0 41.03125l-8.3125 0l-16.546875 -26.765625l0 26.765625l-7.703125 0z" fill-rule="nonzero"/><path fill="#000000" fill-opacity="0.0" d="m564.3937 142.62466l261.7323 0l0 87.275604l-261.7323 0z" fill-rule="evenodd"/><path fill="#ff0000" d="m588.00305 205.38467l0 -16.875l-14.6875 -23.21875l9.484375 0l9.4375 15.859375l9.234375 -15.859375l9.328125 0l-14.734375 23.28125l0 16.8125l-8.0625 0zm26.820312 0l0 -40.09375l29.71875 0l0 6.78125l-21.625 0l0 8.890625l20.125 0l0 6.75l-20.125 0l0 10.921875l22.390625 0l0 6.75l-30.484375 0zm37.570312 0l0 -39.765625l8.09375 0l0 33.015625l20.125 0l0 6.75l-28.21875 0zm34.20703 0l0 -39.765625l8.09375 0l0 33.015625l20.125 0l0 6.75l-28.21875 0zm32.347656 -19.796875q0 -6.125 1.828125 -10.28125q1.375 -3.0625 3.734375 -5.5q2.359375 -2.4375 5.1875 -3.609375q3.734375 -1.578125 8.640625 -1.578125q8.859375 0 14.171875 5.5q5.3125 5.484375 5.3125 15.28125q0 9.703125 -5.28125 15.1875q-5.265625 5.484375 -14.09375 5.484375q-8.953125 0 -14.234375 -5.453125q-5.265625 -5.46875 -5.265625 -15.03125zm8.34375 -0.28125q0 6.8125 3.140625 10.328125q3.140625 3.515625 7.984375 3.515625q4.84375 0 7.9375 -3.484375q3.109375 -3.484375 3.109375 -10.46875q0 -6.890625 -3.03125 -10.28125q-3.015625 -3.390625 -8.015625 -3.390625q-5.0 0 -8.0625 3.4375q-3.0625 3.4375 -3.0625 10.34375zm42.54297 20.078125l-9.578125 -40.09375l8.296875 0l6.03125 27.546875l7.328125 -27.546875l9.625 0l7.03125 28.0l6.15625 -28.0l8.140625 0l-9.734375 40.09375l-8.578125 0l-7.984375 -29.96875l-7.953125 29.96875l-8.78125 0z" fill-rule="nonzero"/><path fill="#000000" fill-opacity="0.0" d="m564.3937 297.91602l261.7323 0l0 88.8819l-261.7323 0z" fill-rule="evenodd"/><path fill="#ffff00" d="m577.56555 361.956l0 -41.03125l13.296875 0q7.5625 0 9.859375 0.609375q3.515625 0.921875 5.890625 4.015625q2.390625 3.09375 2.390625 8.0q0 3.765625 -1.375 6.34375q-1.375 2.578125 -3.484375 4.046875q-2.109375 1.46875 -4.296875 1.953125q-2.96875 0.578125 -8.59375 0.578125l-5.40625 0l0 15.484375l-8.28125 0zm8.28125 -34.09375l0 11.640625l4.53125 0q4.90625 0 6.546875 -0.640625q1.65625 -0.640625 2.59375 -2.015625q0.9375 -1.375 0.9375 -3.1875q0 -2.25 -1.3125 -3.703125q-1.3125 -1.453125 -3.328125 -1.8125q-1.484375 -0.28125 -5.96875 -0.28125l-4.0 0zm29.893677 -6.9375l8.296875 0l0 22.21875q0 5.296875 0.296875 6.859375q0.53125 2.515625 2.53125 4.046875q2.015625 1.53125 5.484375 1.53125q3.515625 0 5.3125 -1.4375q1.796875 -1.453125 2.15625 -3.546875q0.359375 -2.109375 0.359375 -6.96875l0 -22.703125l8.296875 0l0 21.546875q0 7.390625 -0.671875 10.453125q-0.671875 3.046875 -2.484375 5.140625q-1.796875 2.09375 -4.828125 3.34375q-3.015625 1.25 -7.890625 1.25q-5.875 0 -8.921875 -1.359375q-3.03125 -1.359375 -4.796875 -3.53125q-1.765625 -2.171875 -2.328125 -4.546875q-0.8125 -3.53125 -0.8125 -10.40625l0 -21.890625zm41.494324 41.03125l0 -41.03125l17.4375 0q6.578125 0 9.546875 1.109375q2.984375 1.09375 4.78125 3.921875q1.796875 2.828125 1.796875 6.46875q0 4.625 -2.71875 7.640625q-2.71875 3.0 -8.125 3.78125q2.6875 1.5625 4.4375 3.4375q1.75 1.875 4.71875 6.671875l5.015625 8.0l-9.90625 0l-6.0 -8.921875q-3.1875 -4.796875 -4.359375 -6.03125q-1.171875 -1.25 -2.5 -1.703125q-1.3125 -0.46875 -4.15625 -0.46875l-1.6875 0l0 17.125l-8.28125 0zm8.28125 -23.6875l6.125 0q5.96875 0 7.453125 -0.5q1.484375 -0.5 2.3125 -1.734375q0.84375 -1.234375 0.84375 -3.078125q0 -2.078125 -1.109375 -3.34375q-1.09375 -1.28125 -3.109375 -1.609375q-1.015625 -0.140625 -6.046875 -0.140625l-6.46875 0l0 10.40625zm33.088013 23.6875l0 -41.03125l13.296875 0q7.5625 0 9.859375 0.609375q3.515625 0.921875 5.890625 4.015625q2.390625 3.09375 2.390625 8.0q0 3.765625 -1.375 6.34375q-1.375 2.578125 -3.484375 4.046875q-2.109375 1.46875 -4.296875 1.953125q-2.96875 0.578125 -8.59375 0.578125l-5.40625 0l0 15.484375l-8.28125 0zm8.28125 -34.09375l0 11.640625l4.53125 0q4.90625 0 6.546875 -0.640625q1.65625 -0.640625 2.59375 -2.015625q0.9375 -1.375 0.9375 -3.1875q0 -2.25 -1.3125 -3.703125q-1.3125 -1.453125 -3.328125 -1.8125q-1.484375 -0.28125 -5.96875 -0.28125l-4.0 0zm30.174927 34.09375l0 -40.703125l8.296875 0l0 33.78125l20.59375 0l0 6.921875l-28.890625 0zm34.79956 0l0 -41.03125l30.421875 0l0 6.9375l-22.140625 0l0 9.09375l20.609375 0l0 6.921875l-20.609375 0l0 11.15625l22.921875 0l0 6.921875l-31.203125 0z" fill-rule="nonzero"/><path fill="#000000" fill-opacity="0.0" d="m191.45407 324.5538l261.73227 0l0 88.8819l-261.73227 0z" fill-rule="evenodd"/><path fill="#ffab40" d="m204.6572 347.56256l16.40625 0q4.859375 0 7.25 0.40625q2.40625 0.40625 4.28125 1.6875q1.890625 1.28125 3.15625 3.4375q1.265625 2.140625 1.265625 4.796875q0 2.875 -1.5625 5.28125q-1.546875 2.40625 -4.203125 3.609375q3.75 1.09375 5.765625 3.734375q2.015625 2.625 2.015625 6.1875q0 2.796875 -1.3125 5.4375q-1.296875 2.640625 -3.546875 4.234375q-2.25 1.578125 -5.5625 1.9375q-2.0625 0.21875 -9.984375 0.28125l-13.96875 0l0 -41.03125zm8.28125 6.828125l0 9.484375l5.4375 0q4.828125 0 6.015625 -0.140625q2.125 -0.25 3.34375 -1.46875q1.21875 -1.21875 1.21875 -3.203125q0 -1.90625 -1.0625 -3.09375q-1.046875 -1.1875 -3.109375 -1.4375q-1.234375 -0.140625 -7.078125 -0.140625l-4.765625 0zm0 16.3125l0 10.96875l7.671875 0q4.484375 0 5.6875 -0.25q1.84375 -0.328125 3.0 -1.625q1.15625 -1.3125 1.15625 -3.484375q0 -1.859375 -0.890625 -3.140625q-0.890625 -1.296875 -2.59375 -1.875q-1.6875 -0.59375 -7.34375 -0.59375l-6.6875 0zm33.306793 17.890625l0 -40.703125l8.296875 0l0 33.78125l20.59375 0l0 6.921875l-28.890625 0zm34.73706 -41.03125l8.296875 0l0 22.21875q0 5.296875 0.296875 6.859375q0.53125 2.515625 2.53125 4.046875q2.015625 1.53125 5.484375 1.53125q3.515625 0 5.3125 -1.4375q1.796875 -1.453125 2.15625 -3.546875q0.359375 -2.109375 0.359375 -6.96875l0 -22.703125l8.296875 0l0 21.546875q0 7.390625 -0.671875 10.453125q-0.671875 3.046875 -2.484375 5.140625q-1.796875 2.09375 -4.828125 3.34375q-3.015625 1.25 -7.890625 1.25q-5.875 0 -8.921875 -1.359375q-3.03125 -1.359375 -4.796875 -3.53125q-1.765625 -2.171875 -2.328125 -4.546875q-0.8125 -3.53125 -0.8125 -10.40625l0 -21.890625zm41.463043 41.03125l0 -41.03125l30.421875 0l0 6.9375l-22.140625 0l0 9.09375l20.609375 0l0 6.921875l-20.609375 0l0 11.15625l22.921875 0l0 6.921875l-31.203125 0z" fill-rule="nonzero"/></g></svg>